<?xml version="1.0" standalone="no"?>
<!DOCTYPE svg PUBLIC "-//W3C//DTD SVG 20010904//EN"
 "http://www.w3.org/TR/2001/REC-SVG-20010904/DTD/svg10.dtd">
<svg version="1.0" xmlns="http://www.w3.org/2000/svg"
 width="512.000000pt" height="512.000000pt" viewBox="0 0 512.000000 512.000000"
 preserveAspectRatio="xMidYMid meet">
<metadata>
Created by potrace 1.14, written by Peter Selinger 2001-2017
</metadata>
<g transform="translate(0.000000,512.000000) scale(0.100000,-0.100000)"
fill="#000000" stroke="none">
<path d="M2379 5116 c-2 -2 -40 -6 -83 -10 -44 -4 -82 -8 -85 -10 -3 -2 -31
-7 -61 -11 -30 -3 -83 -13 -116 -20 -34 -8 -73 -16 -85 -19 -13 -3 -61 -16
-106 -29 -45 -13 -85 -22 -88 -19 -3 3 -5 1 -5 -5 0 -6 -14 -13 -31 -17 -17
-3 -45 -12 -62 -20 -18 -7 -48 -21 -69 -30 -20 -9 -42 -16 -50 -16 -8 0 -20
-6 -27 -12 -6 -7 -15 -13 -19 -14 -11 -1 -111 -51 -182 -90 -127 -71 -351
-228 -423 -297 -13 -12 -52 -49 -88 -81 -35 -33 -63 -62 -62 -65 1 -3 -9 -12
-23 -19 -13 -7 -24 -16 -24 -20 0 -4 -21 -29 -46 -57 -60 -66 -194 -241 -194
-253 0 -6 -4 -12 -9 -14 -10 -4 -91 -134 -91 -147 0 -5 -4 -11 -9 -13 -21 -8
-203 -410 -216 -478 -2 -8 -14 -54 -28 -100 -28 -95 -37 -131 -44 -175 -2 -16
-6 -36 -9 -43 -2 -8 -7 -37 -10 -65 -3 -29 -8 -59 -11 -67 -18 -52 -24 -491
-9 -625 9 -71 13 -100 16 -100 1 0 3 -13 5 -30 6 -57 24 -147 44 -219 11 -40
22 -85 25 -100 3 -15 10 -34 17 -42 6 -8 9 -14 5 -14 -21 0 195 -487 224 -505
6 -4 8 -11 5 -16 -4 -5 -2 -9 3 -9 5 0 15 -12 23 -27 8 -16 40 -65 71 -110 32
-45 58 -84 58 -87 0 -3 12 -18 27 -35 16 -16 39 -44 53 -62 14 -18 43 -53 66
-76 22 -24 39 -43 38 -43 -1 0 31 -33 73 -72 117 -114 143 -138 148 -138 5 0
47 -35 77 -63 10 -9 21 -17 24 -17 3 0 12 -6 19 -13 33 -29 45 -37 54 -37 5 0
11 -4 13 -8 4 -11 214 -142 227 -142 6 0 11 -4 11 -10 0 -5 9 -10 20 -10 11 0
20 -4 20 -10 0 -5 9 -10 20 -10 11 0 20 -4 20 -8 0 -4 12 -13 28 -19 15 -6 72
-30 127 -53 154 -64 420 -146 485 -149 8 0 35 -5 60 -10 25 -6 72 -14 105 -18
78 -10 617 -10 675 0 43 8 58 10 133 22 66 11 282 67 295 77 6 6 12 7 12 3 0
-4 6 -3 13 3 6 6 14 10 17 10 27 -4 367 138 390 162 3 3 24 14 47 25 24 11 43
23 43 26 0 3 18 14 40 24 22 10 40 22 40 27 0 4 4 8 10 8 5 0 29 14 52 30 24
17 54 38 68 48 14 9 27 19 30 22 3 3 23 19 45 35 57 42 71 54 122 103 25 23
47 42 50 42 9 0 168 171 233 251 56 69 74 92 97 126 14 21 39 58 56 83 17 25
39 57 48 72 10 14 39 66 65 115 25 48 49 93 53 98 4 6 15 28 24 50 8 22 26 63
38 90 13 28 24 55 25 60 1 6 16 48 33 95 37 105 72 233 86 315 2 11 4 20 5 20
3 0 11 39 15 75 2 19 7 51 10 70 27 169 27 500 0 720 -2 14 -4 25 -5 25 -1 0
-3 14 -5 30 -1 17 -4 31 -5 33 -1 1 -3 10 -4 20 -13 119 -102 404 -182 581
-47 104 -178 341 -204 369 -9 9 -19 24 -23 32 -4 8 -23 35 -42 60 -19 25 -38
51 -41 58 -4 8 -16 24 -28 36 -12 12 -46 50 -76 86 -86 100 -232 239 -336 320
-85 66 -202 147 -261 181 -87 50 -114 64 -188 101 -44 22 -93 47 -110 56 -16
9 -32 15 -35 15 -3 -1 -23 6 -45 16 -22 10 -65 26 -95 35 -30 10 -62 20 -70
23 -44 17 -261 73 -305 78 -22 3 -48 8 -59 11 -10 4 -33 8 -50 9 -17 2 -49 6
-71 9 -46 6 -471 17 -476 12z"/>
</g>
</svg>
